<?xml version="1.0" encoding="UTF-8"?><svg xmlns="http://www.w3.org/2000/svg" viewBox="0 0 28.76 28.76"><defs><style>.d{fill:#fff;}</style></defs><g id="a"/><g id="b"><g id="c"><path class="d" d="M27.39,21.7l-2.71-2.11c-1.37-1.07-3.31-.99-4.6,.18-.52,.48-1,.95-1.25,1.28-.02,.03-.04,.05-.07,.07h-.01c-.09,.07-.22,.08-.37,.06h0c-1.45-.23-5.36-3.74-6.19-4.61-.99-.95-5.44-5.92-4.49-6.65,.33-.25,.8-.73,1.28-1.25,1.17-1.28,1.25-3.22,.18-4.6L7.05,1.37c-.16-.21-.35-.39-.55-.55l-.04-.03c-.09-.07-.19-.14-.29-.21-.02-.01-.04-.02-.06-.03-.33-.2-.69-.35-1.06-.44h0c-.13-.03-.26-.05-.39-.07h-.02c-.42-.05-.85-.03-1.27,.07C2.26,.38,1.35,1.18,.93,2.24,.41,3.58-.15,5.48,.04,7.13c0,.07,.03,.16,.05,.24v.04c.53,2.66,4.59,8.48,7.63,11.85,.04,.04,.08,.09,.12,.13,.07,.08,.14,.16,.21,.23h0c.15,.16,.94,.95,1.1,1.1h0c3.3,3.06,9.45,7.4,12.21,7.95h.04c.08,.02,.17,.05,.24,.05,1.65,.19,3.55-.37,4.88-.89,1.07-.42,1.86-1.33,2.14-2.44,.35-1.37-.15-2.81-1.26-3.68Z"/></g></g></svg>