<svg id="Layer_1" data-name="Layer 1" xmlns="http://www.w3.org/2000/svg" viewBox="0 0 1611.82 381.49"><defs><style>.cls-1{fill:#75a500;}</style></defs><path class="cls-1" d="M597.75,328.18a273.24,273.24,0,0,1-61.16,11.12c-30.17,1.71-32.77-5.66-84.07-7.38-38.33-1.29-92,20.83-132.34,18.63-11-.6-68.47-19-79.23-19.61-53.65-3.12-71,26-105.8,23.54C103.87,352.27.81,328.18.81,328.18V30.1S15.48,3.22,61.1.39c40.71,1,37.13,12.91,85.24,11.06C197.84,12.65,200,1,240,0c45.54,0,65.23,11.29,85.74,11.29,22.8,0,38.73-10.9,86.65-10.36,29.78-.31,66.28,11.26,92.84,10.36,32.37-1.1,72.51-18.44,91.69-6.78C596.1,72.91,597.75,328.18,597.75,328.18Z"/><path class="cls-1" d="M0,53.32A273.5,273.5,0,0,1,61.28,42.2c30.22-1.72,32.82,5.65,84.22,7.38,38.39,1.28,92.16-20.84,132.57-18.64,11,.6,68.6,19,79.38,19.62,53.74,3.11,71.08-26,106-23.54C494.77,29.22,598,53.32,598,53.32V351.39s-14.69,26.88-60.4,29.71c-40.77-1-37.19-12.91-85.39-11.06-51.59-1.2-53.75,10.48-93.82,11.45-45.62,0-65.35-11.29-85.9-11.29-22.84,0-38.8,10.9-86.8,10.37-29.84.3-66.4-11.27-93-10.37C60.26,371.31,20.05,388.65.83,377,1.65,308.58,0,53.32,0,53.32Z"/><path class="cls-1" d="M938,328.18a273.26,273.26,0,0,1-61.17,11.12c-30.16,1.71-32.77-5.66-84.07-7.38-38.32-1.29-92,20.83-132.33,18.63-11-.6-68.47-19-79.23-19.61-53.65-3.12-71,26-105.8,23.54-31.28-2.21-134.34-26.3-134.34-26.3V30.1S355.74,3.22,401.36.39c40.7,1,37.13,12.91,85.24,11.06C538.1,12.65,540.26,1,580.26,0,625.8,0,645.48,11.29,666,11.29c22.79,0,38.73-10.9,86.65-10.36,29.78-.31,66.27,11.26,92.84,10.36,32.37-1.1,72.5-18.44,91.69-6.78C936.36,72.91,938,328.18,938,328.18Z"/><path class="cls-1" d="M340.26,53.32A273.49,273.49,0,0,1,401.53,42.2c30.23-1.72,32.83,5.65,84.23,7.38,38.39,1.28,92.16-20.84,132.57-18.64,11,.6,68.59,19,79.37,19.62,53.75,3.11,71.09-26,106-23.54,31.34,2.2,134.58,26.3,134.58,26.3V351.39s-14.69,26.88-60.4,29.71c-40.77-1-37.19-12.91-85.39-11.06-51.59-1.2-53.75,10.48-93.82,11.45-45.62,0-65.35-11.29-85.9-11.29-22.84,0-38.8,10.9-86.8,10.37-29.84.3-66.4-11.27-93-10.37-32.42,1.11-72.63,18.45-91.85,6.78C341.91,308.58,340.26,53.32,340.26,53.32Z"/><path class="cls-1" d="M1275.56,328.18a273.26,273.26,0,0,1-61.17,11.12c-30.17,1.71-32.77-5.66-84.07-7.38-38.32-1.29-92,20.83-132.33,18.63-11-.6-68.47-19-79.23-19.61-53.65-3.12-71,26-105.8,23.54-31.28-2.21-134.34-26.3-134.34-26.3V30.1S693.29,3.22,738.91.39c40.7,1,37.13,12.91,85.24,11.06C875.65,12.65,877.8,1,917.8,0c45.54,0,65.23,11.29,85.75,11.29,22.79,0,38.73-10.9,86.64-10.36C1120,.62,1156.47,12.19,1183,11.29c32.37-1.1,72.5-18.44,91.69-6.78C1273.91,72.91,1275.56,328.18,1275.56,328.18Z"/><path class="cls-1" d="M677.81,53.32A273.49,273.49,0,0,1,739.08,42.2c30.22-1.72,32.83,5.65,84.22,7.38,38.4,1.28,92.17-20.84,132.57-18.64,11,.6,68.6,19,79.38,19.62,53.75,3.11,71.09-26,106-23.54,31.34,2.2,134.58,26.3,134.58,26.3V351.39s-14.7,26.88-60.4,29.71c-40.77-1-37.19-12.91-85.39-11.06-51.59-1.2-53.75,10.48-93.82,11.45-45.63,0-65.35-11.29-85.9-11.29-22.84,0-38.8,10.9-86.8,10.37-29.84.3-66.4-11.27-93-10.37-32.42,1.11-72.63,18.45-91.85,6.78C679.46,308.58,677.81,53.32,677.81,53.32Z"/><path class="cls-1" d="M1614.66,328.18a273.41,273.41,0,0,1-61.17,11.12c-30.17,1.71-32.77-5.66-84.07-7.38-38.32-1.29-92,20.83-132.33,18.63-11-.6-68.48-19-79.24-19.61-53.65-3.12-70.95,26-105.8,23.54-31.28-2.21-134.33-26.3-134.33-26.3V30.1S1032.39,3.22,1078,.39c40.7,1,37.12,12.91,85.24,11.06C1214.75,12.65,1216.9,1,1256.9,0c45.54,0,65.23,11.29,85.75,11.29,22.79,0,38.72-10.9,86.64-10.36,29.79-.31,66.28,11.26,92.85,10.36,32.36-1.1,72.5-18.44,91.68-6.78C1613,72.91,1614.66,328.18,1614.66,328.18Z"/><path class="cls-1" d="M1016.9,53.32a273.65,273.65,0,0,1,61.28-11.12c30.22-1.72,32.83,5.65,84.22,7.38,38.39,1.28,92.17-20.84,132.57-18.64,11,.6,68.6,19,79.38,19.62,53.74,3.11,71.08-26,106-23.54,31.34,2.2,134.58,26.3,134.58,26.3V351.39s-14.7,26.88-60.4,29.71c-40.78-1-37.19-12.91-85.4-11.06-51.59-1.2-53.75,10.48-93.82,11.45-45.62,0-65.34-11.29-85.9-11.29-22.83,0-38.8,10.9-86.8,10.37-29.84.3-66.4-11.27-93-10.37-32.43,1.11-72.64,18.45-91.85,6.78C1018.55,308.58,1016.9,53.32,1016.9,53.32Z"/></svg>