<svg id="Layer_1" data-name="Layer 1" xmlns="http://www.w3.org/2000/svg" viewBox="0 0 37.74 30.17"><defs><style>.cls-1{fill:#7d4e24;opacity:0.15;}</style></defs><path class="cls-1" d="M36.33,14.71A3.33,3.33,0,0,0,31,13.22c-.29.2-.48.67-1,.49-.1-1.41-.15-2.84-.31-4.24-.31-2.81-.76-5.6-2.82-7.76a4.71,4.71,0,0,0-7.95,1.11,18.65,18.65,0,0,0-1.78,5.61,6.77,6.77,0,0,0-1.62-2.09C13.43,4.66,11.41,5,9.91,7.19a8.74,8.74,0,0,0-1.24,3.37c-.32,1.77-.06,3.58-.27,5.49C7,15.3,5.61,14.78,4.12,15.5A6.13,6.13,0,0,0,.85,19.16a18.51,18.51,0,0,0-.5,9.2,1.12,1.12,0,0,0,1.11,1.05c.52.05,1,.13,1.55.17a212.25,212.25,0,0,0,22.13.49c3.54-.1,7.08-.05,10.61-.42.88-.1,1.6-.33,1.7-1.4a40.34,40.34,0,0,0,.19-7.37A18.46,18.46,0,0,0,36.33,14.71ZM35.71,27c-.06.91-.43,1.17-1.3,1.14-2.17-.07-2.16,0-2.11-2.23,0-.95,0-1.9,0-2.85,0-.3,0-.66-.38-.72s-.56.32-.62.66c-.24,1.32-.52,2.63-.67,4-.1.82-.36,1.2-1.26,1.2-2.07,0-4.15.06-6.21.17-.85,0-1.15-.24-1.14-1.09,0-1.64,0-3.28-.09-4.92,0-.74.11-1.94-.71-2s-.69,1.23-.76,1.91c-.19,1.67-.23,3.36-.26,5,0,.78-.25,1.07-1.05,1-1.77-.05-3.54-.05-5.32,0a1.08,1.08,0,0,1-1.23-1,17.47,17.47,0,0,0-.69-2.08c-.13-.35-.22-.84-.73-.76s-.52.63-.52,1a15.77,15.77,0,0,0,.15,1.81c.1.63-.13.88-.76.8a30.61,30.61,0,0,0-7-.38c-.69.07-1-.55-1-1.11a13.85,13.85,0,0,1,.63-7.27,4,4,0,0,1,1.65-1.94c1.49-.94,2.58-.71,3.47.8.47.82.86,1.69,1.31,2.53.22.4.54.7,1.06.52a.89.89,0,0,0,.56-1.05c-.17-1.37-.39-2.73-.53-4.1A18.6,18.6,0,0,1,10.44,10a4.52,4.52,0,0,1,.33-1c.43-.9.83-1.92,2-1.94a2.81,2.81,0,0,1,2.56,1.72C16,10,16.45,11.37,17,12.68c.15.34.27.87.69.83s.75-.58.8-1.06c.13-1.29.21-2.58.31-3.87a12.37,12.37,0,0,1,1.54-5.17C21.57,1.24,23.73.9,25.5,2.66s2.1,3.92,2.36,6.17c.18,1.49.19,3,.29,4.8,0,1.15,0,2.57,0,4,0,.46.06.89.55,1.05s.89-.22,1.08-.68a8.39,8.39,0,0,1,1.94-3.17c1.3-1.17,2.46-1,3.14.66a17.26,17.26,0,0,1,1,6A47.11,47.11,0,0,1,35.71,27Z"/></svg>