<svg id="Layer_1" data-name="Layer 1" xmlns="http://www.w3.org/2000/svg" viewBox="0 0 29.08 29.63"><defs><style>.cls-1{fill:#7d4e24;opacity:0.15;}</style></defs><path class="cls-1" d="M7.69,28.17c1,1.62,2.78,1.74,4.59,1.1A29.18,29.18,0,0,0,25.89,18.83c2-3,3.25-5.62,3.19-8.57a8.07,8.07,0,0,0-4.36-7.47c-2.64-1.4-5.17-.85-7.42.94-.92.72-1.23.19-1.77-.44A8.9,8.9,0,0,0,3.44,1.69C.42,3.94-.25,7.1.08,10.63.69,17.31,4.18,22.76,7.69,28.17ZM7.27,2.6a6.41,6.41,0,0,1,7,3.39c1.36,2.84,1.61,2.86,3.8.56,1.35-1.41,3-2.3,4.93-1.64,2.22.74,3.21,2.59,3.44,4.8.27,2.61-.92,4.78-2.39,7.08a28.47,28.47,0,0,1-11.74,9.53c-1.62.68-2.7.54-3.55-1.17-1.23-2.48-2.72-4.84-4-7.32A19,19,0,0,1,2.48,8.15,5.61,5.61,0,0,1,7.27,2.6Z"/></svg>