<svg id="Layer_1" data-name="Layer 1" xmlns="http://www.w3.org/2000/svg" viewBox="0 0 66.32 59.52"><defs><style>.cls-1{opacity:0.2;}.cls-2{fill:#7d4e24;}</style></defs><g class="cls-1"><path class="cls-2" d="M59.43,43.61c0-.17-.16-.37.14-.46a2.47,2.47,0,0,0,1.62-2.54,3.61,3.61,0,0,0-.32-1.39A2,2,0,0,0,62.59,36a3.69,3.69,0,0,0,2.15-1.1,4.11,4.11,0,0,0,1-4.19,3.42,3.42,0,0,0-3.08-2.54c-.29,0-.24-.15-.13-.34a1.74,1.74,0,0,0,.3-1.6c-.23-.5,0-.75.29-1a6.64,6.64,0,0,1,.71-.58,19,19,0,0,1,1.77-1A1.3,1.3,0,0,0,66.24,22a1.62,1.62,0,0,0-1.35-1.17c-2.38-.44-4.55-.12-6.21,1.87,0,0-.08-.07-.09-.11a8.51,8.51,0,0,0-4-4.29,6,6,0,0,0-3.83-.61c-.42.08-.57,0-.71-.42a4.05,4.05,0,0,0-5.54-2.72,8.21,8.21,0,0,0-2.94,2c-.28.27-.39.33-.61-.08a5.62,5.62,0,0,0-7.64-2.4c-.33.16-.65.35-1.11.6.36-.55.35-.95,0-1.3A5.57,5.57,0,0,0,28,11.58c-.32,0-.36-.09-.36-.37a2.91,2.91,0,0,0-1.95-3.1c-.26-.09-.29-.22-.19-.47A3.22,3.22,0,0,0,25.67,6C25.22,3.19,22,2,20.3,3.26c0,0-.09,0-.13,0A3.56,3.56,0,0,0,17.34.09a4,4,0,0,0-4.82,2.58c-.09-.09-.15-.14-.2-.2a2.91,2.91,0,0,0-3.5-.77A3,3,0,0,0,7.2,5.11c.07.36-.06.35-.34.33A2.85,2.85,0,0,0,3.75,8.26a2.68,2.68,0,0,0,1.7,2.67c.49.22.17.57.09.81s-.28,0-.41-.07a5.08,5.08,0,0,0-4.74.45.68.68,0,0,0-.26,1,9.76,9.76,0,0,0,.59,1,3.92,3.92,0,0,0,4,1.73,6.94,6.94,0,0,0,1.44-.55,15.45,15.45,0,0,0-.1,2.79,10,10,0,0,0,1.81,5.7A8.26,8.26,0,0,0,12.19,27c-.07.2-.24.24-.37.33A4.67,4.67,0,0,0,9.6,30.46a3.65,3.65,0,0,0,1,3.65c.21.18.08.29,0,.44a5.54,5.54,0,0,0,1.27,6.87A6.4,6.4,0,0,0,16.31,43c.33,0,.43.06.28.39a3.36,3.36,0,0,0-.29,1.65,5.48,5.48,0,0,0,4.32,5.1.32.32,0,0,1,.3.34c.06.59.12,1.18.2,1.77a34.67,34.67,0,0,0,1.05,6,3,3,0,0,0,.35.89c.31.47.67.49,1.06.09a2.91,2.91,0,0,0,.48-.84c.23.28.43.57.68.82.41.43.8.37,1.07-.15a3.59,3.59,0,0,0,.44-1.57c.05-2.26-.06-4.53-.16-6.79,0-.38.05-.41.39-.37a3.1,3.1,0,0,0,3.17-1.29s.07-.06.13-.1a5.8,5.8,0,0,0,1.5,2.17,1.21,1.21,0,0,1,.41,1.12,21.58,21.58,0,0,0,.15,4.95,4.86,4.86,0,0,0,.43,1.63c.34.64.81.68,1.3.15.1-.11.14-.29.32-.34.16.21.29.43.46.62a.69.69,0,0,0,1.19-.19,2.12,2.12,0,0,0,.16-.56,16.79,16.79,0,0,0,.18-2.35c0-.88,0-1.77,0-2.65a.85.85,0,0,1,.68-1,3.84,3.84,0,0,0,2.71-2.64,1.36,1.36,0,0,1,.1-.21c1.56,1.47,3.26,2.25,5.39,1.18a2.51,2.51,0,0,1,0,.3c-.17,1.1-.37,2.19-.51,3.29a16.35,16.35,0,0,0-.17,3.89c0,.39.1.84.57,1s.67-.23.92-.5l.12-.15c.13.17.22.29.33.42.5.62,1,.58,1.39-.12a5.36,5.36,0,0,0,.47-1.1,37.38,37.38,0,0,0,1-5c.1-.56.25-1.12.37-1.69a.42.42,0,0,1,.46-.34c.25,0,.12.29.11.44-.11,1.21-.26,2.43-.32,3.65s0,2.41,0,3.61a.74.74,0,0,0,.48.81.81.81,0,0,0,.85-.32,5.65,5.65,0,0,0,.39-.51l.31.39c.28.29.55.64,1,.51s.48-.56.56-.94A90.46,90.46,0,0,0,54,48.83c0-.41.13-.45.49-.38a3.8,3.8,0,0,0,3.09-.57A4.14,4.14,0,0,0,59.43,43.61ZM58.87,24a1.86,1.86,0,0,1,.64-1.21,5,5,0,0,1,3.94-1.45,5.23,5.23,0,0,1,1.47.22.89.89,0,0,1,.66.8c0,.4-.2.59-.5.74a7,7,0,0,0-2.81,2,.24.24,0,0,1-.3.07,3.59,3.59,0,0,0-3.1.35C58.87,25,58.86,24.49,58.87,24Zm-9.13-5.21a1.79,1.79,0,0,1-1.54,1.49c-.27,0-.45-.09-.27-.44a2.77,2.77,0,0,1,1.66-1.2C49.73,18.61,49.74,18.71,49.74,18.82ZM27.87,12.23a4.6,4.6,0,0,1,3.47,1.3c.58.52.65.31.18,1.1a4.06,4.06,0,0,1-5.34,1.71,10,10,0,0,1-1.6-.88c-.13-.1-.27-.18-.27-.37s.21-.21.35-.26a3.44,3.44,0,0,1,2-.28,5.41,5.41,0,0,0,2-.09c.17,0,.36,0,.47-.24a15.58,15.58,0,0,0-2.64-.35,6.68,6.68,0,0,0,1-1.5C27.52,12.2,27.72,12.24,27.87,12.23ZM3,15.23A4,4,0,0,1,.7,13a.3.3,0,0,1,.17-.46,4.82,4.82,0,0,1,4.53-.14c.47.22.46.81.72,1.21.09.14-.17.12-.28.13a12.46,12.46,0,0,1-2.2-.16l-.24,0c-.13,0-.29,0-.33.11s.12.22.23.26a5.61,5.61,0,0,0,2.58.5l.35,0A3,3,0,0,1,3,15.23Zm3.42-3.94c.26-.59.24-.65-.36-.88A2.07,2.07,0,0,1,4.5,7.8,2.15,2.15,0,0,1,6.87,6.13c.3,0,.6.09.91.12s.48-.12.35-.46a4.3,4.3,0,0,1-.34-1A2.31,2.31,0,0,1,9.26,2.2,2.34,2.34,0,0,1,12,3.05c.17.23.28.61.6.57s.51-.43.61-.75a3.48,3.48,0,0,1,4.49-2,2.84,2.84,0,0,1,1.72,3.28c-.07.17-.1.36.08.48s.36,0,.51-.13l.21-.2a2.47,2.47,0,0,1,3.32-.42,3.08,3.08,0,0,1,1.45,3.39,2.41,2.41,0,0,1-.36.67c-.2.29-.13.52.23.54A2.34,2.34,0,0,1,27,10.16a2.93,2.93,0,0,1-.72,3,2.79,2.79,0,0,1-2.53,1h-.52a.61.61,0,0,0-.66.46,4.22,4.22,0,0,1-.26.67A2.17,2.17,0,0,1,20,16.52a2.07,2.07,0,0,1-1.77-1.73c-.07-.25,0-.61-.34-.67s-.4.32-.54.53a3.36,3.36,0,0,1-5.62,0,2.46,2.46,0,0,1-.39-1.32c0-.41-.22-.51-.56-.27s-.44.37-.67.54A2.41,2.41,0,0,1,6.57,13,1.73,1.73,0,0,1,6.38,11.29ZM8.25,23.1a7.83,7.83,0,0,1-1.51-4.79,20.48,20.48,0,0,1,.18-3.5c.08-.34.16-.45.53-.28a3,3,0,0,0,2.81-.25l.47-.28a3.92,3.92,0,0,0,3.13,2.72,3.84,3.84,0,0,0,3.81-1.48c.06.11.1.18.13.25a2.54,2.54,0,0,0,2.57,1.68A2.8,2.8,0,0,0,23,15.39c.06-.13.1-.27.17-.39s.28-.15.44-.11.11.15.1.27a15.18,15.18,0,0,1-4,9.14A6.75,6.75,0,0,1,13,26.42,7.77,7.77,0,0,1,8.25,23.1ZM25.56,57.87c0,.23-.11.47-.18.69s-.2.3-.35,0-.34-.58-.5-.87-.24-.35-.48-.34a.49.49,0,0,0-.45.38c-.09.23-.17.45-.27.67s-.08.28-.25.25-.15-.19-.19-.31a25.14,25.14,0,0,1-.67-3C22,54,21.84,52.51,21.69,51c-.08-.8,0-.81.7-1a4.21,4.21,0,0,0,1.41-.73c.2-.16.35-.16.51,0a.23.23,0,0,0,.11.09c.9.36,1,1.12,1,2,0,1.14.11,2.28.17,3.52A15.83,15.83,0,0,1,25.56,57.87Zm-.88-12.19a2.52,2.52,0,0,1-.44,2.2A1.87,1.87,0,0,1,24.68,45.68ZM35.12,58.4c0,.17,0,.42-.2.45s-.24-.21-.33-.35-.1-.2-.16-.3c-.28-.45-.6-.48-1-.1l-.12.14c-.1.12-.19.29-.38.25s-.21-.27-.24-.43a16,16,0,0,1-.37-2.48,25.15,25.15,0,0,1,0-3.57,5.58,5.58,0,0,0,2.67.7c.18,0,.26.07.26.25C35.27,54.78,35.35,56.6,35.12,58.4Zm13.37-6.77c-.31,1.7-.61,3.41-.94,5.11a7.53,7.53,0,0,1-.62,1.82c-.15.29-.31.35-.49,0l-.1-.16c-.41-.7-.65-.73-1.19-.13-.08.09-.15.25-.28.22s-.13-.23-.15-.36a19.9,19.9,0,0,1,.33-4.56c.19-1.23.4-2.46.6-3.76.34.22.63.42.93.6a3.65,3.65,0,0,0,1.39.51C48.61,51,48.6,51,48.49,51.63Zm-3.21-4a.69.69,0,0,1,.13.58C45.22,48,45.22,48,45.28,47.62Zm8,1.49c-.21,2.64-.31,5.29-.65,7.92-.05.43-.14.86-.21,1.29,0,.1,0,.25-.13.29s-.22-.11-.3-.2a1.65,1.65,0,0,1-.39-.87c0-.19-.13-.34-.33-.36s-.22.15-.29.27l-.47.79c-.07.12-.13.3-.3.27s-.12-.24-.12-.37c0-.55,0-1.1,0-1.64,0-2,.28-4,.48-6a.59.59,0,0,1,.21-.42,4,4,0,0,0,1.37-2.32c.08-.33.22-.35.44-.11,0,0,.06.09.1.1C53.51,47.93,53.36,48.54,53.32,49.11Zm.22-1.62a2.26,2.26,0,0,1-.94-.87c-.09-.18-.2-.35-.44-.31s-.27.21-.31.38a10.61,10.61,0,0,1-.57,1.64,3,3,0,0,1-4.43,1.54c-.2-.12-.38-.28-.59-.41A.57.57,0,0,1,46,48.8a2.55,2.55,0,0,0-.12-1.47c-.14-.33-.36-.66-.78-.58s-.51.45-.53.82A2.26,2.26,0,0,0,45,49a.57.57,0,0,1-.07.81,2.62,2.62,0,0,1-2.92.83,3.32,3.32,0,0,1-2.45-2,.37.37,0,0,0-.3-.29c-.18,0-.23.17-.28.29a5.18,5.18,0,0,0-.17.56A3.69,3.69,0,0,1,33.91,52a5.24,5.24,0,0,1-3.44-3.07c-.08-.18-.13-.36-.21-.54-.17-.36-.38-.4-.66-.12s-.54.56-.82.82a3,3,0,0,1-4.06-.19c-.17-.19-.14-.31,0-.49a3.83,3.83,0,0,0,.7-1.78,2,2,0,0,0-.16-1.17.65.65,0,0,0-1.14-.19,2.65,2.65,0,0,0-.66,2.32.58.58,0,0,0,0,.14c.21,1,.2,1-.74,1.49a3.44,3.44,0,0,1-3.94-.55,4.48,4.48,0,0,1-1.41-5.4c.23-.57.16-.71-.46-.79s-1-.1-1.58-.15a5.6,5.6,0,0,1-4.8-4.8A4.41,4.41,0,0,1,11.07,35c.16-.3.31-.41.68-.29a2.39,2.39,0,0,0,2.16-.31A1.18,1.18,0,0,0,14.4,33c-.19-.46-.63-.63-1.27-.46a3.34,3.34,0,0,0-1.58.88c-.33.33-.54.23-.77-.06a3.23,3.23,0,0,1-.55-2.53,4.5,4.5,0,0,1,3.22-3.56,1,1,0,0,1,.33,0c3.07.3,5.33-1.1,7.16-3.39a15.64,15.64,0,0,0,3.15-7.06,1.94,1.94,0,0,0,.07-.33c0-.41.17-.37.46-.18a5.88,5.88,0,0,0,4.4,1,4.63,4.63,0,0,0,1.71-.76c.84-.57,1.64-1.19,2.52-1.7a5.08,5.08,0,0,1,7.15,1.94c.1.18.19.37.29.56.34.67.51.69,1,.09A7.26,7.26,0,0,1,43.21,16a5.57,5.57,0,0,1,2.3-1.06c2.23-.35,3.5,1,4.07,2.73a.29.29,0,0,1-.2.41c-.41.17-.81.39-1.21.6a1.81,1.81,0,0,0-.92,1.12A.81.81,0,0,0,48,20.93a2.36,2.36,0,0,0,2.29-2.12c0-.33.14-.42.44-.48,2.53-.44,4.38.74,6,2.51a5.08,5.08,0,0,1,1.47,4.23c0,.42,0,.74,0,1.06,0,.15,0,.3.13.39a.36.36,0,0,0,.39-.09,4.83,4.83,0,0,1,1.37-.8,1.82,1.82,0,0,1,1.75.12,1,1,0,0,1,.41,1.17A3.25,3.25,0,0,1,61.7,28c-.14.19-.35.38-.19.65s.4.17.61.14A2.72,2.72,0,0,1,65,30.28a3.29,3.29,0,0,1-.11,3.41,2.78,2.78,0,0,1-2.78,1.62,4.46,4.46,0,0,0-.82,0,.28.28,0,0,0-.29.21c0,.16.09.23.21.28a2.5,2.5,0,0,1,.88.58,1.2,1.2,0,0,1-.85,2.07,2.7,2.7,0,0,1-1.3-.33c-.2-.1-.42-.26-.59,0s0,.43.22.57a2.35,2.35,0,0,1,.71,3.05,1.21,1.21,0,0,1-.45.55c-.48.33-.66.31-1.07-.11-.26-.26-.52-.53-.8-.77A1.59,1.59,0,0,0,57,41a.73.73,0,0,0-.7,1.13,2.42,2.42,0,0,0,1.75,1.08c.76.15.8.17.82,1A3.54,3.54,0,0,1,53.54,47.49ZM11.93,34a2.76,2.76,0,0,1,1.37-.83c.17-.05.37-.12.47.09a.44.44,0,0,1-.16.52A1.61,1.61,0,0,1,11.93,34Zm46.28,8.54a1.75,1.75,0,0,1-1.38-.9C57.5,41.71,57.8,42.14,58.21,42.57Z"/><path class="cls-2" d="M14.42,24.66a1.37,1.37,0,0,0,1-1,.28.28,0,0,0-.14-.37c-.19-.07-.31,0-.4.18a1.41,1.41,0,0,1-.19.34c-.24.24-.53.5-.87.25s-.38-.81-.37-1.28.35-.37.61-.44a3.34,3.34,0,0,0,.44-.17A1.23,1.23,0,0,0,15.16,21a1,1,0,0,0-.77-1A2.54,2.54,0,0,0,13,19.75c-.7.08-1.06.34-1.19.85a1.32,1.32,0,0,0,.62,1.49c.1.07.26.1.24.27a2.4,2.4,0,0,1-.43,1.3c-.35.4-.7.35-.94-.12-.07-.14-.13-.29-.2-.44s-.14-.26-.32-.23-.25.19-.25.36a1.11,1.11,0,0,0,.1.51,1.27,1.27,0,0,0,2.22.27l.27.33A1.09,1.09,0,0,0,14.42,24.66ZM12.7,21.5a.67.67,0,0,1-.26-.85c.11-.3.35-.37.66-.32a7.46,7.46,0,0,0,.81.1c.33,0,.59.15.64.52s-.2.57-.52.69a1.74,1.74,0,0,1-.33.08A1.57,1.57,0,0,1,12.7,21.5Z"/><path class="cls-2" d="M9.76,17.59c-.51,0-.43.5-.52.8s0,.73.45.69.46-.51.49-.86S10.14,17.57,9.76,17.59Z"/><path class="cls-2" d="M18.12,20c.43,0,.39-.44.46-.73s0-.62-.43-.59-.43.42-.44.74S17.77,20.05,18.12,20Z"/></g></svg>