<svg id="Layer_1" data-name="Layer 1" xmlns="http://www.w3.org/2000/svg" xmlns:xlink="http://www.w3.org/1999/xlink" viewBox="0 0 1824 474.16"><defs><style>.cls-1{fill:none;}.cls-2{clip-path:url(#clip-path);}.cls-3{fill:#fff8d9;}</style><clipPath id="clip-path"><rect class="cls-1" width="1824" height="474.16"/></clipPath></defs><g class="cls-2"><path class="cls-3" d="M709.62,197.7a126.35,126.35,0,0,0,24.92-75.91C734.54,54.53,683.36,0,620.23,0c-28.14,0-53.89,10.83-73.81,28.79C526.51,10.83,500.76,0,472.62,0c-27.89,0-53.45,10.65-73.29,28.34C379.48,10.65,353.93,0,326,0c-28.13,0-53.88,10.83-73.8,28.79C232.32,10.83,206.56,0,178.43,0a109.62,109.62,0,0,0-72.2,27.38A109.65,109.65,0,0,0,34,0C-29.11,0-80.29,54.53-80.29,121.79A126.35,126.35,0,0,0-55.37,197.7a126.32,126.32,0,0,0-24.92,75.9A128.85,128.85,0,0,0-74.18,313a128.9,128.9,0,0,0-6.11,39.38c0,67.27,51.18,121.8,114.31,121.8a109.65,109.65,0,0,0,72.21-27.38,109.62,109.62,0,0,0,72.2,27.38c28.13,0,53.89-10.84,73.8-28.8,19.92,18,45.67,28.8,73.8,28.8,27.9,0,53.45-10.66,73.3-28.34,19.84,17.68,45.4,28.34,73.29,28.34,28.14,0,53.89-10.84,73.8-28.8,19.92,18,45.67,28.8,73.81,28.8,63.13,0,114.31-54.53,114.31-121.8A128.9,128.9,0,0,0,728.42,313a128.85,128.85,0,0,0,6.12-39.38A126.32,126.32,0,0,0,709.62,197.7Z"/><path class="cls-3" d="M1296.46,197.7a126.34,126.34,0,0,0,24.91-75.91C1321.37,54.53,1270.2,0,1207.06,0c-28.13,0-53.88,10.83-73.8,28.79C1113.35,10.83,1087.6,0,1059.46,0c-27.89,0-53.45,10.65-73.29,28.34C966.32,10.65,940.77,0,912.87,0,884.74,0,859,10.83,839.07,28.79,819.16,10.83,793.4,0,765.27,0a109.6,109.6,0,0,0-72.2,27.38A109.65,109.65,0,0,0,620.86,0C557.73,0,506.55,54.53,506.55,121.79a126.35,126.35,0,0,0,24.92,75.91,126.32,126.32,0,0,0-24.92,75.9A128.85,128.85,0,0,0,512.66,313a128.9,128.9,0,0,0-6.11,39.38c0,67.27,51.18,121.8,114.31,121.8a109.65,109.65,0,0,0,72.21-27.38,109.6,109.6,0,0,0,72.2,27.38c28.13,0,53.89-10.84,73.8-28.8,19.91,18,45.67,28.8,73.8,28.8,27.9,0,53.45-10.66,73.3-28.34,19.84,17.68,45.4,28.34,73.29,28.34,28.14,0,53.89-10.84,73.8-28.8,19.92,18,45.67,28.8,73.8,28.8,63.14,0,114.31-54.53,114.31-121.8a128.9,128.9,0,0,0-6.11-39.38,128.85,128.85,0,0,0,6.11-39.38A126.31,126.31,0,0,0,1296.46,197.7Z"/><path class="cls-3" d="M1880.2,197.7a126.35,126.35,0,0,0,24.92-75.91C1905.12,54.53,1853.94,0,1790.81,0c-28.14,0-53.89,10.83-73.8,28.79C1697.09,10.83,1671.34,0,1643.2,0c-27.89,0-53.45,10.65-73.29,28.34C1550.06,10.65,1524.51,0,1496.61,0c-28.13,0-53.88,10.83-73.8,28.79C1402.9,10.83,1377.14,0,1349,0a109.62,109.62,0,0,0-72.2,27.38A109.65,109.65,0,0,0,1204.6,0c-63.13,0-114.31,54.53-114.31,121.79a126.35,126.35,0,0,0,24.92,75.91,126.32,126.32,0,0,0-24.92,75.9,128.85,128.85,0,0,0,6.12,39.38,128.9,128.9,0,0,0-6.12,39.38c0,67.27,51.18,121.8,114.31,121.8a109.65,109.65,0,0,0,72.21-27.38,109.62,109.62,0,0,0,72.2,27.38c28.13,0,53.89-10.84,73.8-28.8,19.92,18,45.67,28.8,73.8,28.8,27.9,0,53.45-10.66,73.3-28.34,19.84,17.68,45.4,28.34,73.29,28.34,28.14,0,53.89-10.84,73.81-28.8,19.91,18,45.66,28.8,73.8,28.8,63.13,0,114.31-54.53,114.31-121.8A128.9,128.9,0,0,0,1899,313a128.85,128.85,0,0,0,6.12-39.38A126.32,126.32,0,0,0,1880.2,197.7Z"/></g></svg>