<svg xmlns="http://www.w3.org/2000/svg" width="19.926" height="22.773" viewBox="0 0 19.926 22.773"><path d="M1694.6,43.006V44.43h5.694V43.006a1.423,1.423,0,1,1,2.846,0V44.43h2.135a2.135,2.135,0,0,1,2.135,2.135V48.7h-19.926V46.565a2.135,2.135,0,0,1,2.135-2.135h2.135V43.006a1.423,1.423,0,0,1,2.846,0Zm-7.116,7.117h19.926v12.1a2.135,2.135,0,0,1-2.135,2.135h-15.656a2.135,2.135,0,0,1-2.135-2.135Zm2.846,4.982a.713.713,0,0,0,.712.711h1.424a.713.713,0,0,0,.711-.711V53.681a.713.713,0,0,0-.711-.711h-1.424a.713.713,0,0,0-.712.711Zm0,5.693a.714.714,0,0,0,.712.712h1.424a.714.714,0,0,0,.711-.712V59.374a.713.713,0,0,0-.711-.711h-1.424a.713.713,0,0,0-.712.711Zm5.694-5.693a.713.713,0,0,0,.711.711h1.424a.713.713,0,0,0,.711-.711V53.681a.713.713,0,0,0-.711-.711h-1.424a.713.713,0,0,0-.711.711Zm.711,3.558a.713.713,0,0,0-.711.711V60.8a.714.714,0,0,0,.711.712h1.424a.714.714,0,0,0,.711-.712V59.374a.713.713,0,0,0-.711-.711Zm5.693-5.693a.713.713,0,0,0-.711.711V55.1a.713.713,0,0,0,.711.711h1.424a.714.714,0,0,0,.712-.711V53.681a.714.714,0,0,0-.712-.711Zm-.711,7.828a.714.714,0,0,0,.711.712h1.424a.715.715,0,0,0,.712-.712V59.374a.714.714,0,0,0-.712-.711h-1.424a.713.713,0,0,0-.711.711Z" transform="translate(-1687.487 -41.583)" fill="#fff"/></svg>