<?xml version="1.0" encoding="utf-8"?>
<!-- Generator: Adobe Illustrator 24.3.0, SVG Export Plug-In . SVG Version: 6.00 Build 0)  -->
<svg version="1.1" id="Layer_1" xmlns="http://www.w3.org/2000/svg" xmlns:xlink="http://www.w3.org/1999/xlink" x="0px" y="0px"
	 viewBox="0 0 253.9 180.1" style="enable-background:new 0 0 253.9 180.1;" xml:space="preserve">
<style type="text/css">
	.st0{fill:#231F20;}
	.st1{enable-background:new    ;}
</style>
<path class="st0" d="M201.2,71.3l-2.5-50.8l-18.1,11.6c-0.2-0.2-0.3-0.3-0.5-0.5c-14.6-14-35.4-21.5-56.8-20.6
	c-17.7,0.6-34.6,7.3-47.8,18.9c-5.4,4.8-10,10.4-13.6,16.7c-1.8,3.2,5.8,7.2,7.1,4.9c10.3-19.3,32.4-32.7,57.9-32.7
	c18.3,0,34.9,6.9,46.5,18L156,48.1L201.2,71.3z M193.4,59.2l-22.6-11.8L192,33.8L193.4,59.2z"/>
<path class="st0" d="M53.9,109l2.5,50.8l18.1-11.6c0.2,0.2,0.3,0.3,0.5,0.5c14.6,14,35.4,21.5,56.8,20.6c17.7-0.6,34.6-7.3,47.9-19
	c5.4-4.8,10-10.4,13.5-16.6c1.8-3.2-5.9-7.3-7.1-4.9c-10.3,19.3-32.3,32.7-57.8,32.7c-18.3,0-34.9-6.9-46.5-18l17.5-11.3L53.9,109z
	 M61.8,121.1l22.6,11.8l-21.2,13.7L61.8,121.1z"/>
<g class="st1">
	<path class="st0" d="M16.7,90.2H18v-3.6c0-3-0.2-4.9-0.5-5.9c-0.3-1-1-1.5-1.9-1.5c-0.6,0-1.1,0.1-1.5,0.4
		c-0.5,0.3-0.7,0.7-0.7,1.2c0,0.5,0.1,1,0.3,1.6h1.2c0.2,0.7,0.4,1.4,0.4,2.4c0,0.9-0.4,1.7-1.2,2.4c-0.8,0.7-1.8,1-2.9,1
		c-2.7,0-4-1.3-4-3.9c0-3.8,3.2-5.7,9.7-5.7c3.7,0,6.3,0.6,7.7,1.9c1.4,1.3,2.1,3.6,2.1,6.9v9.5c0,1.6,0.5,2.4,1.4,2.4
		c1.1,0,1.7-1.6,1.9-4.8l0.7,0c-0.1,2.7-0.6,4.6-1.5,5.6c-0.9,1-2.4,1.5-4.4,1.5c-3.7,0-5.9-1.2-6.4-3.5c-0.4,1.2-1,2.1-1.8,2.6
		c-0.8,0.6-2,0.8-3.5,0.8C8.3,101.6,6,99.8,6,96c0-2.2,0.9-3.7,2.6-4.5C10.3,90.6,13,90.2,16.7,90.2z M15.1,99.1
		c0.2,0.5,0.5,0.7,1,0.7c0.5,0,0.9-0.4,1.4-1.2s0.6-1.9,0.6-3.3V91h-0.3c-1.9,0-2.9,1.4-2.9,4.2v0.7C14.8,97.6,14.9,98.6,15.1,99.1z
		"/>
	<path class="st0" d="M32.2,101.6v-8.4h0.6c0.8,2.7,1.9,4.6,3.3,5.7c1.4,1.1,3.1,1.6,5.1,1.6c3.2,0,4.8-1,4.8-3c0-0.9-0.4-1.5-1.2-2
		c-1.2-0.7-2.8-1.2-4.7-1.6c-2.1-0.6-3.9-1.3-5.3-2.2c-1.7-1.1-2.6-2.9-2.6-5.3s0.7-4.4,2.2-5.8c1.5-1.4,3.5-2.2,6-2.2
		c1.5,0,3.1,0.4,4.7,1.1c0.6,0.2,1,0.4,1.4,0.4c0.3,0,0.6-0.1,0.8-0.3c0.2-0.2,0.5-0.6,0.8-1.2h0.5v7.1H48c-1.6-4-4-6.1-7.4-6.1
		c-1.5,0-2.6,0.3-3.3,0.8c-0.7,0.5-1.1,1.2-1.1,1.9c0,0.5,0.1,0.8,0.3,1.1c0.2,0.3,0.4,0.5,0.5,0.6c0.1,0.1,0.3,0.3,0.6,0.4
		c0.3,0.1,0.5,0.2,0.7,0.3c0.2,0.1,0.5,0.2,0.9,0.3c0.4,0.1,0.7,0.2,0.9,0.2c2.1,0.5,3.6,1,4.6,1.4c0.9,0.4,1.8,0.9,2.7,1.4
		c1.7,1.2,2.6,3.1,2.6,5.7c0,2.6-0.8,4.6-2.3,6c-1.6,1.4-3.7,2-6.4,2c-1.9,0-3.8-0.5-5.6-1.4c-0.4-0.2-0.7-0.4-0.9-0.4
		c-0.7,0-1.4,0.6-2,1.7H32.2z"/>
	<path class="st0" d="M51.2,79h11.4v21.4h2.6v0.8H51.3v-0.8h2.6V79.8h-2.8V79z M58.2,75.7c-1.6,0-2.8-0.4-3.5-1.3
		c-0.7-0.8-1-1.9-1-3.1c0-1.2,0.4-2.3,1.1-3.1c0.8-0.8,1.9-1.2,3.5-1.2c1.6,0,2.7,0.4,3.5,1.1c0.8,0.7,1.2,1.8,1.2,3.1
		c0,1.4-0.4,2.4-1.2,3.2C61.1,75.3,59.8,75.7,58.2,75.7z"/>
	<path class="st0" d="M77.4,66.2v16.3c1.2-2.7,3.2-4,6.1-4c5.8,0,8.7,3.9,8.7,11.6c0,3.9-0.8,6.9-2.4,8.7c-1.6,1.9-4,2.8-7.2,2.8
		c-1.6,0-2.9-0.2-3.7-0.7c-0.9-0.5-1.4-1.3-1.7-2.5l-0.3,2.8H66.1v-0.8h2.6V67h-2.6v-0.8H77.4z M82.7,82.2c-0.3-1.1-0.9-1.7-1.8-1.7
		c-0.9,0-1.7,0.6-2.4,1.7c-0.7,1.1-1.1,2.7-1.1,4.6v8.7c0,1.3,0.3,2.5,0.8,3.4c0.5,0.9,1.3,1.4,2.3,1.4c1,0,1.7-0.7,2.1-2.1
		c0.4-1.4,0.6-3.8,0.6-7.2v-2.4C83.2,85.4,83,83.3,82.7,82.2z"/>
	<path class="st0" d="M104.8,90.2h1.4v-3.6c0-3-0.2-4.9-0.5-5.9c-0.3-1-1-1.5-1.9-1.5c-0.6,0-1.1,0.1-1.5,0.4
		c-0.5,0.3-0.7,0.7-0.7,1.2c0,0.5,0.1,1,0.3,1.6h1.2c0.2,0.7,0.4,1.4,0.4,2.4c0,0.9-0.4,1.7-1.2,2.4c-0.8,0.7-1.8,1-2.9,1
		c-2.7,0-4-1.3-4-3.9c0-3.8,3.2-5.7,9.7-5.7c3.7,0,6.3,0.6,7.7,1.9c1.4,1.3,2.1,3.6,2.1,6.9v9.5c0,1.6,0.5,2.4,1.4,2.4
		c1.1,0,1.7-1.6,1.9-4.8l0.7,0c-0.1,2.7-0.6,4.6-1.5,5.6c-0.9,1-2.4,1.5-4.4,1.5c-3.7,0-5.9-1.2-6.4-3.5c-0.4,1.2-1,2.1-1.8,2.6
		c-0.8,0.6-2,0.8-3.5,0.8c-4.6,0-6.9-1.9-6.9-5.6c0-2.2,0.9-3.7,2.6-4.5C98.4,90.6,101.1,90.2,104.8,90.2z M103.1,99.1
		c0.2,0.5,0.5,0.7,1,0.7c0.5,0,0.9-0.4,1.4-1.2s0.6-1.9,0.6-3.3V91h-0.3c-1.9,0-2.9,1.4-2.9,4.2v0.7C102.9,97.6,103,98.6,103.1,99.1
		z"/>
	<path class="st0" d="M119.3,79h11.2v4.3c0.5-1.4,1.3-2.6,2.3-3.5c1-0.9,2.6-1.3,4.7-1.3c4.8,0,7.2,2.6,7.2,7.8v14h2.6v0.8h-13.2
		v-0.8h1.9V85.2c0-1.9-0.1-3.1-0.4-3.6c-0.2-0.5-0.7-0.8-1.4-0.8c-1,0-1.9,0.7-2.6,2c-0.8,1.3-1.1,2.9-1.1,4.8v12.9h2v0.8h-13.2
		v-0.8h2.6V79.8h-2.6V79z"/>
	<path class="st0" d="M163.2,111.4V97.6c-1.2,2.7-3.2,4-6.1,4c-5.8,0-8.7-3.9-8.7-11.6c0-3.9,0.8-6.9,2.4-8.7c1.6-1.9,4-2.8,7.2-2.8
		c2.6,0,4.4,1,5.5,2.9l0.3-2.5h10.6v0.8h-2.6v31.6h2.3v0.8h-15.7v-0.8H163.2z M157.8,98c0.3,1.1,0.9,1.7,1.8,1.7
		c0.9,0,1.7-0.6,2.4-1.7c0.7-1.1,1.1-2.7,1.1-4.6v-8.7c0-1.3-0.3-2.5-0.8-3.4c-0.5-0.9-1.3-1.4-2.3-1.4c-1.1,0-1.8,0.7-2.2,2.1
		c-0.4,1.4-0.5,3.8-0.5,7.2v2.4C157.4,94.7,157.5,96.9,157.8,98z"/>
	<path class="st0" d="M202.6,101.2H192l-0.5-3.4c-0.5,1.2-1.2,2.2-2.2,2.9c-1,0.7-2.4,1-4.4,1c-4.8,0-7.2-2.6-7.2-7.8v-14h-2.6V79
		h11.3v16c0,1.9,0.1,3.1,0.4,3.7c0.3,0.6,0.8,0.9,1.6,0.9s1.5-0.5,2.1-1.4c0.6-1,0.9-2.3,0.9-4V79.8h-2.1V79h10.8v21.4h2.6V101.2z"
		/>
</g>
<g class="st1">
	<path class="st0" d="M214.8,90.2h1.4v-3.6c0-3-0.2-4.9-0.5-5.9c-0.3-1-1-1.5-1.9-1.5c-0.6,0-1.1,0.1-1.5,0.4
		c-0.5,0.3-0.7,0.7-0.7,1.2c0,0.5,0.1,1,0.3,1.6h1.2c0.2,0.7,0.4,1.4,0.4,2.4c0,0.9-0.4,1.7-1.2,2.4c-0.8,0.7-1.8,1-2.9,1
		c-2.7,0-4-1.3-4-3.9c0-3.8,3.2-5.7,9.7-5.7c3.7,0,6.3,0.6,7.7,1.9c1.4,1.3,2.1,3.6,2.1,6.9v9.5c0,1.6,0.5,2.4,1.4,2.4
		c1.1,0,1.7-1.6,1.9-4.8l0.7,0c-0.1,2.7-0.6,4.6-1.5,5.6s-2.4,1.5-4.4,1.5c-3.7,0-5.9-1.2-6.4-3.5c-0.4,1.2-1,2.1-1.8,2.6
		s-2,0.8-3.5,0.8c-4.6,0-6.9-1.9-6.9-5.6c0-2.2,0.9-3.7,2.6-4.5C208.4,90.6,211.1,90.2,214.8,90.2z M213.1,99.1
		c0.2,0.5,0.5,0.7,1,0.7c0.5,0,0.9-0.4,1.4-1.2s0.6-1.9,0.6-3.3V91h-0.3c-1.9,0-2.9,1.4-2.9,4.2v0.7C212.9,97.6,213,98.6,213.1,99.1
		z"/>
</g>
<g class="st1">
	<path class="st0" d="M226.1,79.8V79h13.5v0.8h-2.5l5.1,15.5l5.4-15.5h-3.1V79h6.6v0.8h-2.3l-8.7,25.1c-1,2.9-2.2,5-3.5,6.1
		c-1.3,1.2-2.8,1.7-4.7,1.7s-3.3-0.4-4.3-1.3c-1.1-0.8-1.6-1.9-1.6-3.2c0-1.3,0.3-2.3,1-3c0.7-0.7,1.6-1,2.7-1
		c2.6,0,3.9,1.1,3.9,3.2c0,0.5-0.1,1-0.3,1.7h-1.6c-0.2,0.7-0.3,1.3-0.1,1.8c0.2,0.5,0.6,0.7,1.3,0.7c1.3,0,2.4-0.6,3.4-1.9
		c1-1.3,1.9-3.2,2.8-5.8l1-2.9H236l-8-21.4H226.1z"/>
</g>
</svg>
