<svg id="Layer_1" data-name="Layer 1" xmlns="http://www.w3.org/2000/svg" xmlns:xlink="http://www.w3.org/1999/xlink" viewBox="0 0 59.83 38.5"><defs><style>.cls-1{fill:url(#linear-gradient);}.cls-2{fill:url(#linear-gradient-2);}.cls-3{fill:#972a47;}</style><linearGradient id="linear-gradient" x1="13.84" y1="7.34" x2="47.76" y2="7.34" gradientUnits="userSpaceOnUse"><stop offset="0" stop-color="#bf8f4e"/><stop offset="0.5" stop-color="#d8b979"/><stop offset="1" stop-color="#bf8f4e"/></linearGradient><linearGradient id="linear-gradient-2" x1="11.94" y1="31.16" x2="45.86" y2="31.16" xlink:href="#linear-gradient"/></defs><path class="cls-1" d="M47.76,14.67,47.15,2.32,42.76,5.15,42.64,5A18.84,18.84,0,0,0,28.83,0,18.56,18.56,0,0,0,17.2,4.63a16,16,0,0,0-3.29,4.05c-.44.77,1.42,1.76,1.73,1.18a15.8,15.8,0,0,1,14.06-8A16.44,16.44,0,0,1,41,6.28L36.76,9Zm-1.9-2.95-5.5-2.86,5.16-3.32Z"/><path class="cls-2" d="M11.94,23.82l.6,12.35,4.4-2.82a.68.68,0,0,0,.12.12,18.88,18.88,0,0,0,13.81,5A18.59,18.59,0,0,0,42.5,33.87a16.13,16.13,0,0,0,3.29-4c.44-.78-1.42-1.76-1.73-1.18A15.81,15.81,0,0,1,30,36.6a16.44,16.44,0,0,1-11.32-4.38l4.26-2.74Zm1.9,2.95,5.5,2.87L14.18,33Z"/><path class="cls-3" d="M2.84,19.26h.32v-.88a6.16,6.16,0,0,0-.11-1.44.46.46,0,0,0-.46-.37.6.6,0,0,0-.37.11.34.34,0,0,0-.17.29,1.27,1.27,0,0,0,.07.38H2.4a1.61,1.61,0,0,1,.1.57.73.73,0,0,1-.29.58,1.08,1.08,0,0,1-.71.25.86.86,0,0,1-1-.95c0-.93.79-1.39,2.37-1.39a2.85,2.85,0,0,1,1.87.46,2.22,2.22,0,0,1,.51,1.68v2.3c0,.4.11.59.33.59s.41-.38.46-1.16h.17a2.28,2.28,0,0,1-.38,1.37A1.37,1.37,0,0,1,4.77,22c-.9,0-1.42-.27-1.56-.83a1.3,1.3,0,0,1-.44.63,1.5,1.5,0,0,1-.86.2C.79,22,.23,21.58.23,20.66a1.1,1.1,0,0,1,.64-1.1A4.85,4.85,0,0,1,2.84,19.26Zm-.4,2.15a.25.25,0,0,0,.24.17c.12,0,.23-.1.33-.29a1.75,1.75,0,0,0,.15-.8v-1H3.08c-.46,0-.7.34-.7,1v.18A2.91,2.91,0,0,0,2.44,21.41Z"/><path class="cls-3" d="M6.6,22V20h.14a2.73,2.73,0,0,0,.79,1.39,2,2,0,0,0,1.25.4c.77,0,1.16-.25,1.16-.74a.53.53,0,0,0-.29-.48,3.92,3.92,0,0,0-1.13-.38,4.46,4.46,0,0,1-1.3-.55,1.44,1.44,0,0,1-.62-1.29,1.85,1.85,0,0,1,.55-1.41,2,2,0,0,1,1.45-.53,2.85,2.85,0,0,1,1.14.26,1,1,0,0,0,.33.09.26.26,0,0,0,.19-.08,1.16,1.16,0,0,0,.2-.29h.12v1.73h-.13a1.94,1.94,0,0,0-1.8-1.47,1.4,1.4,0,0,0-.79.18.59.59,0,0,0-.26.48.4.4,0,0,0,.08.26,1,1,0,0,0,.12.14.48.48,0,0,0,.15.1l.17.08.21.07.21.06a10.44,10.44,0,0,1,1.11.33,4.07,4.07,0,0,1,.65.35,1.58,1.58,0,0,1,.62,1.39,1.81,1.81,0,0,1-.57,1.45A2.25,2.25,0,0,1,8.8,22a3,3,0,0,1-1.36-.32.38.38,0,0,0-.22-.1c-.16,0-.32.15-.48.42Z"/><path class="cls-3" d="M11.22,16.52H14v5.2h.63v.2H11.26v-.2h.63v-5h-.67Zm1.71-.78a1,1,0,0,1-.86-.31,1.12,1.12,0,0,1-.25-.76,1,1,0,0,1,.28-.74,1.08,1.08,0,0,1,.84-.3,1.22,1.22,0,0,1,.86.27,1,1,0,0,1,.3.76,1.1,1.1,0,0,1-.29.79A1.19,1.19,0,0,1,12.93,15.74Z"/><path class="cls-3" d="M17.59,13.42v4a1.49,1.49,0,0,1,1.47-1q2.13,0,2.13,2.82a3.19,3.19,0,0,1-.59,2.12,2.16,2.16,0,0,1-1.75.68,1.84,1.84,0,0,1-.9-.18,1,1,0,0,1-.43-.6l-.08.67H14.86v-.2h.62v-8.1h-.62v-.2Zm1.29,3.88c-.07-.27-.22-.4-.44-.4a.71.71,0,0,0-.59.41,2.08,2.08,0,0,0-.26,1.12v2.11a1.67,1.67,0,0,0,.2.83.63.63,0,0,0,.57.34c.24,0,.41-.17.5-.5A7.67,7.67,0,0,0,19,19.46v-.59A6.59,6.59,0,0,0,18.88,17.3Z"/><path class="cls-3" d="M24.25,19.26h.33v-.88a5.5,5.5,0,0,0-.12-1.44.46.46,0,0,0-.46-.37.6.6,0,0,0-.37.11.34.34,0,0,0-.17.29,1.27,1.27,0,0,0,.07.38h.29a1.62,1.62,0,0,1,.09.57.73.73,0,0,1-.29.58,1.06,1.06,0,0,1-.71.25.86.86,0,0,1-1-.95c0-.93.79-1.39,2.37-1.39a2.83,2.83,0,0,1,1.87.46,2.22,2.22,0,0,1,.52,1.68v2.3c0,.4.11.59.32.59s.41-.38.46-1.16h.17a2.28,2.28,0,0,1-.38,1.37,1.35,1.35,0,0,1-1.07.37c-.91,0-1.43-.27-1.57-.83a1.24,1.24,0,0,1-.44.63,1.48,1.48,0,0,1-.86.2c-1.12,0-1.68-.45-1.68-1.37a1.1,1.1,0,0,1,.64-1.1A4.88,4.88,0,0,1,24.25,19.26Zm-.39,2.15a.23.23,0,0,0,.23.17c.12,0,.23-.1.33-.29a1.62,1.62,0,0,0,.16-.8v-1H24.5c-.47,0-.71.34-.71,1v.18A2.4,2.4,0,0,0,23.86,21.41Z"/><path class="cls-3" d="M27.77,16.52h2.74v1.05a1.84,1.84,0,0,1,.55-.84,1.74,1.74,0,0,1,1.14-.32c1.17,0,1.76.63,1.76,1.89v3.42h.63v.2H31.38v-.2h.47V18a2.65,2.65,0,0,0-.09-.88.34.34,0,0,0-.33-.2c-.25,0-.46.16-.64.48a2.22,2.22,0,0,0-.28,1.16v3.13H31v.2H27.77v-.2h.63v-5h-.63Z"/><path class="cls-3" d="M38.45,24.42V21.06A1.5,1.5,0,0,1,37,22c-1.41,0-2.12-.94-2.12-2.82a3.19,3.19,0,0,1,.59-2.12,2.19,2.19,0,0,1,1.75-.68,1.39,1.39,0,0,1,1.33.71l.07-.6h2.59v.21h-.62v7.69h.55v.2H37.29v-.2Zm-1.3-3.28c.08.27.23.41.45.41a.74.74,0,0,0,.59-.41A2.11,2.11,0,0,0,38.45,20V17.91a1.64,1.64,0,0,0-.2-.83.61.61,0,0,0-.55-.34c-.27,0-.44.17-.53.5A7.78,7.78,0,0,0,37,19v.59A7.33,7.33,0,0,0,37.15,21.14Z"/><path class="cls-3" d="M48,21.92H45.46l-.13-.83a1.43,1.43,0,0,1-.54.7,1.91,1.91,0,0,1-1.06.24C42.56,22,42,21.4,42,20.14V16.73h-.63v-.21h2.74v3.89a2.71,2.71,0,0,0,.1.9.38.38,0,0,0,.39.21.61.61,0,0,0,.51-.35,1.78,1.78,0,0,0,.23-1V16.73h-.52v-.21h2.63v5.2H48Z"/><path class="cls-3" d="M51,19.26h.33v-.88a5.5,5.5,0,0,0-.12-1.44.46.46,0,0,0-.46-.37.6.6,0,0,0-.37.11.33.33,0,0,0-.16.29,1,1,0,0,0,.07.38h.28a1.62,1.62,0,0,1,.09.57.72.72,0,0,1-.28.58,1.09,1.09,0,0,1-.72.25.85.85,0,0,1-1-.95c0-.93.79-1.39,2.37-1.39a2.8,2.8,0,0,1,1.86.46,2.18,2.18,0,0,1,.52,1.68v2.3c0,.4.11.59.33.59s.41-.38.45-1.16h.17A2.29,2.29,0,0,1,54,21.66a1.37,1.37,0,0,1-1.08.37c-.91,0-1.43-.27-1.57-.83a1.18,1.18,0,0,1-.44.63,1.46,1.46,0,0,1-.86.2c-1.12,0-1.68-.45-1.68-1.37a1.12,1.12,0,0,1,.64-1.1A4.92,4.92,0,0,1,51,19.26Zm-.39,2.15a.24.24,0,0,0,.24.17c.11,0,.22-.1.33-.29a1.75,1.75,0,0,0,.15-.8v-1h-.08c-.47,0-.7.34-.7,1v.18A2.91,2.91,0,0,0,50.6,21.41Z"/><path class="cls-3" d="M53.76,16.73v-.21h3.29v.21h-.62l1.24,3.76L59,16.73h-.76v-.21h1.6v.21h-.57l-2.12,6.11a3.67,3.67,0,0,1-.84,1.49,1.65,1.65,0,0,1-1.14.43,1.68,1.68,0,0,1-1-.31.94.94,0,0,1-.39-.78,1,1,0,0,1,.25-.73.93.93,0,0,1,.66-.25c.63,0,.94.26.94.79a1.3,1.3,0,0,1-.07.4h-.39a.66.66,0,0,0,0,.43.29.29,0,0,0,.31.17,1,1,0,0,0,.83-.46,4.89,4.89,0,0,0,.69-1.4l.25-.7h-1l-1.94-5.19Z"/></svg>